<?xml version="1.0" encoding="UTF-8" standalone="no"?>
<!-- Created with Inkscape (http://www.inkscape.org/) -->

<svg
   xmlns:dc="http://purl.org/dc/elements/1.1/"
   xmlns:cc="http://creativecommons.org/ns#"
   xmlns:rdf="http://www.w3.org/1999/02/22-rdf-syntax-ns#"
   xmlns:svg="http://www.w3.org/2000/svg"
   xmlns="http://www.w3.org/2000/svg"
   xmlns:sodipodi="http://sodipodi.sourceforge.net/DTD/sodipodi-0.dtd"
   xmlns:inkscape="http://www.inkscape.org/namespaces/inkscape"
   id="svg4136"
   version="1.1"
   inkscape:version="0.91 r13725"
   xml:space="preserve"
   width="91.140297"
   height="89.969872"
   viewBox="0 0 91.140297 89.969872"
   sodipodi:docname="KIT.svg"><metadata
     id="metadata4142"><rdf:RDF><cc:Work
         rdf:about=""><dc:format>image/svg+xml</dc:format><dc:type
           rdf:resource="http://purl.org/dc/dcmitype/StillImage" /><dc:title></dc:title></cc:Work></rdf:RDF></metadata><defs
     id="defs4140" /><sodipodi:namedview
     pagecolor="#ffffff"
     bordercolor="#666666"
     borderopacity="1"
     objecttolerance="10"
     gridtolerance="10"
     guidetolerance="10"
     inkscape:pageopacity="0"
     inkscape:pageshadow="2"
     inkscape:window-width="1920"
     inkscape:window-height="1137"
     id="namedview4138"
     showgrid="false"
     inkscape:zoom="5.9353535"
     inkscape:cx="72.476404"
     inkscape:cy="34.577349"
     inkscape:window-x="-8"
     inkscape:window-y="-8"
     inkscape:window-maximized="1"
     inkscape:current-layer="g4144"
     fit-margin-top="1.2"
     fit-margin-left="1.2"
     fit-margin-right="1.2"
     fit-margin-bottom="1.2" /><g
     id="g4144"
     inkscape:groupmode="layer"
     inkscape:label="ink_ext_XXXXXX"
     transform="matrix(1.25,0,0,-1.25,-0.08454025,112.26752)"><g
       id="g4271"><path
         d="m 71.947972,18.798117 0,0 0,0 0,0 z"
         style="fill:#231f20;fill-opacity:1;fill-rule:evenodd;stroke:none"
         id="path4150"
         inkscape:connector-curvature="0" /><path
         d="m 71.947972,18.798117 0,0 0,0 0,0 z"
         style="fill:#231f20;fill-opacity:1;fill-rule:evenodd;stroke:none"
         id="path4152"
         inkscape:connector-curvature="0" /><path
         d="m 17.155772,63.222017 c -3.6719,-4.4641 -6.8399,-9.3602 -9.2878998,-14.6161 l 64.0800998,-29.8078 -54.7922,44.4239"
         style="fill:#00a990;fill-opacity:1;fill-rule:evenodd;stroke:none"
         id="path4154"
         inkscape:connector-curvature="0" /><path
         d="m 71.947972,18.798117 -29.8801,63.5758 c -5.3281,-2.448001 -10.2242,-5.4719 -14.6883,-9.0719 l 44.5684,-54.5039 0,0"
         style="fill:#00a990;fill-opacity:1;fill-rule:evenodd;stroke:none"
         id="path4156"
         inkscape:connector-curvature="0" /><path
         d="m 71.947972,18.798117 0.0719,70.0559 c -0.2161,0 -0.3602,0 -0.5762,0 -5.6879,0 -11.2321,-0.7199 -16.5598,-2.016 l 17.0641,-68.0399 0,0"
         style="fill:#231f20;fill-opacity:1;fill-rule:evenodd;stroke:none"
         id="path4158"
         inkscape:connector-curvature="0" /><path
         d="m 71.947972,18.798117 0,0 0,0 0,0 z"
         style="fill:#231f20;fill-opacity:1;fill-rule:evenodd;stroke:none"
         id="path4160"
         inkscape:connector-curvature="0" /><path
         d="m 71.947972,18.798117 0,0 0,0 0,0 z"
         style="fill:#231f20;fill-opacity:1;fill-rule:evenodd;stroke:none"
         id="path4162"
         inkscape:connector-curvature="0" /><path
         d="m 3.2596622,35.934117 c -1.43984,-5.471901 -2.15976,-11.232101 -2.23203,-17.136 l 70.9203398,0 -68.6883098,17.136"
         style="fill:#00a990;fill-opacity:1;fill-rule:evenodd;stroke:none"
         id="path4164"
         inkscape:connector-curvature="0" /></g></g></svg>